<svg xmlns="http://www.w3.org/2000/svg" xmlns:xlink="http://www.w3.org/1999/xlink" version="1.1" x="0px" y="0px" viewBox="0 0 100 100" enable-background="new 0 0 100 100" xml:space="preserve"><path d="M86.482,12.673h-1.839c-18.965,0-33.29-11.565-33.435-11.682l-0.242-0.198L50.003,0l-0.002,0.002L49.997,0l-0.962,0.793  l-0.244,0.198c-0.144,0.117-14.469,11.682-33.434,11.682h-1.838h-0.002v47.558h0.002c0,28.016,36.123,39.656,36.478,39.769  c0.357-0.112,36.485-11.753,36.485-39.769h0.001L86.482,12.673L86.482,12.673z M50.001,92.075  c-3.986-1.394-29.805-11.251-29.805-32.743c0,0,0-37.478,0-40.186C35.2,18.602,46.591,11.215,50.001,8.708  c3.408,2.507,14.8,9.894,29.804,10.438c0,2.708,0,40.186,0,40.186C79.805,80.824,53.986,90.682,50.001,92.075z"></path></svg>