<?xml version="1.0" encoding="UTF-8" standalone="no"?>
<svg width="432px" height="463px" viewBox="0 0 432 463" version="1.1" xmlns="http://www.w3.org/2000/svg" xmlns:xlink="http://www.w3.org/1999/xlink" xmlns:sketch="http://www.bohemiancoding.com/sketch/ns">
    <!-- Generator: Sketch 3.2.2 (9983) - http://www.bohemiancoding.com/sketch -->
    <title>Shape</title>
    <desc>Created with Sketch.</desc>
    <defs>
        <filter x="-50%" y="-50%" width="200%" height="200%" filterUnits="objectBoundingBox" id="filter-1">
            <feOffset dx="0" dy="2" in="SourceAlpha" result="shadowOffsetOuter1"></feOffset>
            <feGaussianBlur stdDeviation="2" in="shadowOffsetOuter1" result="shadowBlurOuter1"></feGaussianBlur>
            <feColorMatrix values="0 0 0 0 0   0 0 0 0 0   0 0 0 0 0  0 0 0 0.35 0" in="shadowBlurOuter1" type="matrix" result="shadowMatrixOuter1"></feColorMatrix>
            <feMerge>
                <feMergeNode in="shadowMatrixOuter1"></feMergeNode>
                <feMergeNode in="SourceGraphic"></feMergeNode>
            </feMerge>
        </filter>
    </defs>
    <g id="Page-1" stroke="none" stroke-width="1" fill="none" fill-rule="evenodd" sketch:type="MSPage">
        <path d="M117.85,161.755556 C117.85,153.161111 110.772222,146.083333 102.177778,146.083333 C93.5833333,146.083333 86.5055556,153.161111 86.5055556,161.755556 C86.5055556,170.35 93.5833333,177.427778 102.177778,177.427778 C110.772222,177.427778 117.85,170.35 117.85,161.755556 L117.85,161.755556 Z M108.244444,263.372222 C101.166667,263.372222 95.6055556,268.933333 95.6055556,276.011111 C95.6055556,283.088889 101.166667,288.65 108.244444,288.65 C115.322222,288.65 120.883333,283.088889 120.883333,276.011111 C120.883333,268.933333 115.322222,263.372222 108.244444,263.372222 L108.244444,263.372222 Z M179.022222,105.133333 C184.077778,105.133333 187.616667,101.088889 187.616667,96.5388889 C187.616667,91.9888889 183.572222,87.9444444 179.022222,87.9444444 C174.472222,87.9444444 170.427778,91.4833333 170.427778,96.5388889 C170.427778,101.594444 173.966667,105.133333 179.022222,105.133333 L179.022222,105.133333 Z M320.577778,112.211111 C325.127778,112.211111 328.666667,108.672222 328.666667,104.122222 C328.666667,99.5722222 325.127778,96.0333333 320.577778,96.0333333 C316.027778,96.0333333 312.488889,99.5722222 312.488889,104.122222 C312.488889,108.672222 316.027778,112.211111 320.577778,112.211111 L320.577778,112.211111 Z M8.65,73.2833333 C6.12222222,73.2833333 4.1,75.3055556 4.1,77.8333333 C4.1,80.3611111 6.12222222,82.3833333 8.65,82.3833333 C11.1777778,82.3833333 13.2,80.3611111 13.2,77.8333333 C13.2,75.3055556 11.1777778,73.2833333 8.65,73.2833333 L8.65,73.2833333 Z M99.65,215.344444 C99.65,216.355556 100.661111,217.366667 101.672222,217.366667 C102.683333,217.366667 103.694444,216.355556 103.694444,215.344444 C103.694444,214.333333 102.683333,213.322222 101.672222,213.322222 C100.661111,212.816667 99.65,213.827778 99.65,215.344444 L99.65,215.344444 Z M231.6,78.3388889 C231.6,76.8222222 230.083333,75.3055556 228.566667,75.3055556 C227.05,75.3055556 225.533333,76.8222222 225.533333,78.3388889 C225.533333,79.8555556 227.05,81.3722222 228.566667,81.3722222 C230.083333,81.3722222 231.6,79.8555556 231.6,78.3388889 L231.6,78.3388889 Z M215.927778,6.04444444 C216.938889,6.04444444 217.95,5.03333333 217.95,4.02222222 C217.95,3.01111111 216.938889,2 215.927778,2 C214.916667,2 213.905556,3.01111111 213.905556,4.02222222 C213.905556,5.03333333 214.916667,6.04444444 215.927778,6.04444444 L215.927778,6.04444444 Z M312.994444,274.494444 C314.511111,274.494444 316.027778,272.977778 316.027778,271.461111 C316.027778,269.944444 314.511111,268.427778 312.994444,268.427778 C311.477778,268.427778 309.961111,269.944444 309.961111,271.461111 C309.961111,272.977778 311.477778,274.494444 312.994444,274.494444 L312.994444,274.494444 Z M233.622222,295.727778 C233.622222,297.244444 235.138889,298.761111 236.655556,298.761111 C238.172222,298.761111 239.688889,297.244444 239.688889,295.727778 C239.688889,294.211111 238.172222,292.694444 236.655556,292.694444 C235.138889,292.694444 233.622222,294.211111 233.622222,295.727778 L233.622222,295.727778 Z M228.566667,279.044444 C228.566667,280.561111 230.083333,282.077778 231.6,282.077778 C233.116667,282.077778 234.633333,280.561111 234.633333,279.044444 C234.633333,277.527778 233.116667,276.011111 231.6,276.011111 C229.577778,276.011111 228.566667,277.527778 228.566667,279.044444 L228.566667,279.044444 Z M218.455556,436.777778 C212.894444,436.777778 208.344444,441.327778 208.344444,446.888889 C208.344444,452.45 212.894444,457 218.455556,457 C224.016667,457 228.566667,452.45 228.566667,446.888889 C228.566667,441.327778 224.016667,436.777778 218.455556,436.777778 L218.455556,436.777778 Z M427.25,222.422222 C425.227778,193.605556 417.138889,150.127778 388.322222,108.672222 C388.322222,108.672222 374.672222,86.9333333 347.372222,63.1722222 C322.094444,41.4333333 280.133333,13.6277778 221.994444,3.51666667 C221.488889,3.51666667 220.983333,3.51666667 220.983333,4.02222222 C220.983333,4.52777778 220.983333,5.03333333 221.488889,5.03333333 C279.122222,14.6388889 321.083333,42.4444444 345.855556,64.1833333 C373.155556,87.4388889 386.3,109.177778 386.805556,109.177778 C415.116667,150.633333 423.205556,193.605556 425.227778,221.916667 C427.25,253.261111 422.194444,274.494444 422.194444,275 C410.566667,332.127778 373.155556,368.527778 372.65,369.033333 C344.338889,398.355556 311.477778,410.488889 289.233333,415.038889 C264.966667,420.094444 247.272222,418.577778 247.272222,418.577778 C247.272222,418.577778 227.05,417.566667 204.3,407.455556 C183.572222,398.355556 155.766667,379.144444 142.116667,341.227778 C142.116667,341.227778 137.566667,328.083333 138.577778,311.4 C139.083333,296.233333 144.644444,274.494444 165.877778,259.327778 C165.877778,259.327778 184.077778,246.183333 204.3,255.788889 C204.805556,255.788889 215.927778,261.35 217.444444,278.033333 C207.333333,264.383333 195.2,264.383333 190.65,264.888889 C174.977778,266.911111 166.888889,278.033333 166.383333,278.538889 C150.205556,300.277778 152.733333,322.522222 157.788889,337.183333 C163.35,353.361111 172.955556,364.483333 172.955556,364.483333 C173.461111,364.988889 201.266667,400.377778 257.383333,401.894444 L257.383333,401.894444 C258.394444,401.894444 272.55,401.894444 291.761111,396.333333 C309.961111,391.277778 335.744444,380.661111 357.483333,357.405556 C374.166667,338.194444 386.3,319.488889 393.883333,299.266667 C403.488889,274.494444 407.027778,247.7 403.994444,217.366667 C400.961111,180.461111 385.288889,125.861111 329.677778,77.3277778 C329.677778,77.3277778 314.005556,62.1611111 286.2,48.0055556 C260.922222,34.8611111 219.466667,19.1888889 168.405556,20.7055556 C114.816667,22.2222222 63.7555556,38.9055556 14.2111111,72.7777778 C13.7055556,72.7777778 13.7055556,73.2833333 14.2111111,73.7888889 C14.2111111,74.2944444 14.7166667,74.2944444 15.2222222,73.7888889 C64.7666667,40.4222222 114.816667,23.7388889 168.911111,22.2222222 C219.972222,21.2111111 260.922222,36.3777778 286.2,49.5222222 C313.5,63.6777778 329.172222,78.3388889 329.172222,78.3388889 C384.277778,126.366667 399.444444,180.461111 402.983333,217.366667 C409.05,287.133333 381.244444,328.083333 356.472222,356.394444 C316.027778,399.872222 259.911111,400.377778 257.888889,400.377778 L257.888889,400.377778 C202.783333,398.861111 174.977778,363.977778 174.472222,363.472222 C174.472222,363.472222 164.866667,352.35 159.305556,336.677778 C154.25,322.016667 151.722222,300.277778 167.394444,279.55 C167.394444,279.55 175.483333,268.427778 190.65,266.405556 C195.2,265.9 205.816667,265.9 215.422222,278.538889 C210.872222,276.516667 199.244444,272.472222 187.616667,279.55 C171.438889,289.661111 168.405556,313.422222 174.472222,331.116667 C174.472222,331.622222 177.505556,341.733333 187.616667,352.855556 C196.716667,362.966667 214.411111,376.616667 243.733333,380.661111 C243.733333,380.661111 246.261111,381.166667 250.305556,381.166667 C256.372222,381.166667 266.483333,380.661111 278.111111,378.133333 C296.311111,374.088889 322.094444,363.472222 343.327778,338.194444 C343.327778,338.194444 353.438889,327.072222 363.044444,307.861111 C371.638889,290.166667 381.75,261.855556 379.222222,226.466667 C379.222222,226.466667 379.222222,212.311111 373.155556,191.077778 C367.594444,171.866667 355.461111,142.544444 329.172222,113.222222 C328.666667,112.716667 328.161111,112.716667 328.161111,113.222222 C327.655556,113.727778 327.655556,114.233333 328.161111,114.233333 C378.211111,170.35 377.705556,225.961111 377.705556,226.466667 C380.233333,261.35 370.627778,289.661111 361.527778,306.85 C351.922222,325.555556 341.811111,336.677778 341.811111,336.677778 C321.083333,361.45 295.3,372.066667 277.605556,376.111111 C258.394444,380.661111 243.733333,379.144444 243.227778,379.144444 C213.905556,375.1 197.222222,361.955556 188.122222,351.844444 C179.527778,340.722222 177,330.611111 177,330.611111 C170.933333,313.422222 173.966667,290.672222 189.638889,281.066667 C200.761111,273.988889 211.883333,278.538889 215.927778,280.561111 C211.377778,281.066667 195.2,284.605556 190.144444,298.761111 C190.144444,299.266667 187.616667,306.85 189.638889,317.466667 C191.661111,327.072222 198.233333,341.733333 218.455556,353.361111 C218.961111,353.866667 229.072222,359.933333 245.25,362.461111 C248.283333,362.966667 251.822222,362.966667 255.361111,362.966667 C269.516667,362.966667 288.727778,358.922222 308.95,344.261111 C308.95,344.261111 321.588889,336.172222 334.227778,319.488889 C345.855556,304.322222 359.505556,278.033333 359.505556,241.127778 C359.505556,241.127778 360.011111,223.433333 353.944444,199.672222 C348.383333,177.933333 335.744444,146.588889 307.938889,120.805556 C307.433333,120.3 279.122222,92.4944444 236.15,79.35 C235.644444,79.35 235.138889,79.35 235.138889,79.8555556 C235.138889,80.3611111 235.138889,80.8666667 235.644444,80.8666667 C278.111111,94.0111111 306.927778,121.816667 306.927778,122.322222 C334.733333,148.105556 346.866667,178.944444 352.427778,200.177778 C358.494444,223.433333 357.988889,240.622222 357.988889,241.127778 C357.988889,277.527778 344.338889,303.311111 332.711111,318.477778 C320.577778,334.655556 307.938889,342.744444 307.938889,342.744444 C282.661111,360.944444 259.911111,362.461111 245.25,360.438889 C229.577778,358.416667 219.466667,351.844444 219.466667,351.844444 C199.75,340.216667 193.177778,326.566667 191.155556,316.961111 C189.133333,306.85 191.661111,299.266667 191.661111,298.761111 C196.211111,286.122222 209.355556,282.583333 214.916667,281.572222 C211.377778,284.1 204.805556,290.166667 202.783333,299.772222 C201.266667,308.366667 204.3,317.972222 212.388889,327.577778 C212.894444,328.083333 219.466667,335.666667 232.611111,340.216667 C237.666667,341.733333 243.733333,343.25 251.316667,343.25 C261.933333,343.25 275.583333,340.722222 291.255556,332.127778 C291.255556,332.127778 304.4,324.544444 317.038889,308.366667 C328.161111,293.2 341.305556,266.911111 338.272222,227.477778 C338.272222,226.972222 335.238889,198.661111 316.533333,168.327778 C305.411111,150.633333 290.75,135.466667 273.055556,123.838889 C251.316667,109.177778 224.522222,99.5722222 194.188889,95.5277778 C193.683333,95.5277778 193.177778,95.5277778 193.177778,96.0333333 C193.177778,96.5388889 193.177778,97.0444444 193.683333,97.0444444 C261.933333,106.65 297.322222,141.533333 315.016667,169.338889 C333.722222,199.166667 336.755556,227.477778 336.755556,227.983333 C339.788889,266.911111 327.15,292.694444 316.027778,307.861111 C303.894444,324.038889 290.75,331.116667 290.75,331.622222 C264.461111,345.777778 245.25,343.755556 233.622222,339.711111 C220.983333,335.161111 214.411111,327.577778 214.411111,327.577778 C206.827778,318.477778 203.794444,309.377778 205.311111,300.783333 C206.827778,291.177778 214.411111,285.111111 217.444444,283.088889 C215.422222,287.638889 210.872222,300.783333 218.961111,313.927778 L218.961111,313.927778 C219.466667,315.444444 223.005556,318.477778 223.005556,318.477778 C227.05,322.016667 235.644444,328.083333 248.788889,328.083333 C257.383333,328.083333 268.505556,325.555556 281.65,317.972222 C281.65,317.972222 304.4,305.333333 312.994444,278.033333 C312.994444,277.527778 312.994444,277.022222 312.488889,277.022222 C311.983333,277.022222 311.477778,277.022222 311.477778,277.527778 C302.883333,303.816667 281.144444,316.455556 280.638889,316.455556 C263.955556,326.061111 249.294444,328.588889 236.15,324.544444 C226.544444,321.511111 220.983333,314.938889 219.972222,313.422222 L219.972222,313.422222 L219.972222,312.916667 C212.894444,300.783333 216.433333,288.65 218.455556,284.1 C218.455556,287.638889 219.466667,295.727778 225.027778,302.3 C230.083333,307.861111 237.666667,310.894444 247.777778,311.4 L248.788889,311.4 C251.316667,311.4 257.888889,310.894444 265.977778,307.355556 C275.077778,303.311111 287.716667,293.705556 295.805556,272.472222 C295.805556,272.472222 301.872222,258.822222 300.355556,239.611111 C299.344444,221.916667 292.266667,195.627778 263.955556,170.855556 C233.116667,144.061111 197.222222,139.511111 172.45,140.522222 C146.161111,141.533333 125.938889,149.116667 124.927778,149.622222 C124.422222,149.622222 124.422222,150.633333 124.422222,150.633333 C124.422222,151.138889 124.927778,151.138889 125.433333,150.633333 C125.433333,150.633333 145.15,142.544444 172.45,141.533333 C196.716667,140.522222 232.105556,145.072222 262.438889,171.361111 C290.244444,195.627778 297.322222,221.411111 298.333333,238.6 C299.344444,257.305556 293.783333,270.45 293.783333,270.45 C278.111111,310.388889 247.777778,308.366667 247.272222,308.366667 C237.666667,308.366667 230.588889,305.333333 225.533333,299.772222 C220.477778,293.705556 219.466667,286.627778 219.466667,283.088889 C221.488889,285.616667 226.038889,291.683333 230.588889,293.705556 L231.094444,293.705556 C231.6,293.705556 231.6,293.705556 231.6,293.2 C231.6,292.694444 231.6,292.188889 231.094444,292.188889 C227.05,290.672222 222.5,285.111111 220.983333,282.077778 C223.511111,283.594444 228.566667,285.616667 234.633333,285.616667 C239.688889,285.616667 244.744444,284.1 250.305556,280.055556 C250.305556,280.055556 273.055556,264.888889 261.933333,228.488889 C261.933333,227.983333 257.888889,216.355556 245.755556,204.222222 C234.633333,193.1 214.916667,179.45 182.055556,179.45 C181.55,179.45 135.544444,179.955556 105.211111,210.288889 C104.705556,210.794444 104.705556,211.3 105.211111,211.3 C105.716667,211.805556 106.222222,211.805556 106.222222,211.3 C135.544444,181.472222 181.55,180.966667 181.55,180.966667 C213.4,181.472222 233.116667,194.111111 243.733333,205.233333 C255.361111,216.861111 259.405556,228.994444 259.405556,228.994444 C270.022222,263.877778 248.788889,278.538889 248.283333,278.538889 C237.161111,287.133333 225.027778,282.583333 220.983333,280.561111 C221.994444,280.561111 223.005556,280.561111 224.522222,280.055556 C225.027778,280.055556 225.533333,279.55 225.027778,279.044444 C225.027778,278.538889 224.522222,278.033333 224.016667,278.538889 C223.005556,280.055556 221.488889,280.055556 220.983333,280.055556 C225.027778,277.527778 236.15,269.438889 234.633333,256.294444 C234.633333,255.788889 234.633333,246.688889 228.061111,237.083333 C221.994444,228.488889 209.861111,217.872222 183.572222,217.366667 C183.066667,217.366667 173.461111,216.861111 160.316667,221.916667 C148.183333,226.466667 130.488889,236.577778 115.827778,258.822222 L115.827778,259.833333 L116.838889,259.833333 C145.15,217.366667 182.561111,218.883333 183.066667,218.883333 C203.288889,219.388889 218.455556,225.961111 226.544444,237.588889 C232.611111,246.688889 232.611111,255.788889 232.611111,255.788889 C234.127778,268.933333 221.994444,277.022222 218.961111,278.538889 C217.95,259.833333 205.311111,253.766667 204.805556,253.766667 C184.077778,244.161111 165.372222,257.305556 164.866667,257.811111 C143.127778,273.483333 138.072222,295.727778 137.061111,311.4 C136.555556,328.588889 140.6,341.733333 140.6,342.238889 C154.25,380.661111 182.055556,399.872222 203.288889,409.477778 C226.544444,419.588889 246.261111,420.6 246.766667,420.6 C246.766667,420.6 249.8,421.105556 254.855556,421.105556 C262.438889,421.105556 274.572222,420.6 289.233333,417.061111 C311.983333,412.005556 344.844444,400.377778 373.661111,370.55 C374.166667,370.044444 412.083333,333.138889 423.711111,275.505556 C424.216667,275.505556 429.272222,253.766667 427.25,222.422222 L427.25,222.422222 Z M218.455556,280.561111 L218.455556,280.561111 C218.455556,281.066667 218.455556,281.066667 218.455556,280.561111 L218.455556,280.561111 L218.455556,280.561111 Z" id="Shape" fill="#8CD9E0" filter="url(#filter-1)" sketch:type="MSShapeGroup"></path>
    </g>
</svg>